<?xml version="1.0" standalone="no"?> <!DOCTYPE svg PUBLIC "-//W3C//DTD SVG 1.0//EN" "http://www.w3.org/TR/2001/REC-SVG-20010904/DTD/svg10.dtd" > <svg xmlns="http://www.w3.org/2000/svg" width="100%" height="100%">
<defs >
<font id="antiqueolivestdbold" horiz-adv-x="1064" ><font-face
    font-family="Antique Olive Std"
    units-per-em="2048"
    panose-1="2 11 7 3 2 2 4 3 2 4"
    ascent="1585"
    descent="-463"
    alphabetic="0" />
<missing-glyph horiz-adv-x="1024" d="M0 0V1434H1024V0H0ZM512 809L860 1331H164L512 809ZM573 717L922 195V1239L573 717ZM164 102H860L512 625L164 102ZM102 1239V195L451 717L102 1239Z" />
<glyph unicode=" " glyph-name="space" horiz-adv-x="569" />
<glyph unicode="!" glyph-name="exclam" horiz-adv-x="679" d="M168 24T168 98T208 202T340 233T471 203T512 98T472 -6T340 -37T209 -7ZM238 367L193 1038V1417Q193 1480 224 1500T332 1520Q420 1520 453 1500T487 1417V1038L442 367H238Z" />
<glyph unicode="&quot;" glyph-name="quotedbl" horiz-adv-x="909" d="M727 1520V1028H506V1520H727ZM403 1520V1028H182V1520H403Z" />
<glyph unicode="#" glyph-name="numbersign" horiz-adv-x="1138" d="M1012 629V432H823L764 0H567L627 432H420L360 0H164L223 432H63V629H252L289 891H127V1087H315L375 1520H571L512 1087H719L778 1520H975L915 1087H1075V891H887L852 629H1012ZM655 629L690
891H485L449 629H655Z" />
<glyph unicode="$" glyph-name="dollar" horiz-adv-x="1138" d="M121 139V496Q178 371 289 302T532 233Q780 233 780 403Q780 451 756 487T691 545T598 586T487 623T370 664T259 722T165 805T100 926T76 1094Q76 1280 201 1408T518 1556V1767H653V1556Q788 1545
878 1491T1008 1380V1014Q884 1249 618 1249Q570 1249 529 1241T450 1213T392 1158T371 1073Q371 1036 394 1007T458 957T550 917T659 878T774 835T884 778T976 702T1039 596T1063 455Q1063 251 951 120T653 -37V-256H518V-37Q278 -23 121 139Z" />
<glyph unicode="%" glyph-name="percent" horiz-adv-x="1820" d="M1352 -37Q1289 -37 1239 -15T1155 44T1099 134T1067 246T1057 373Q1057 442 1064 498T1092 606T1144 693T1229 749T1352 770Q1424 770 1476 748T1560 691T1609 603T1634 496T1640 373Q1640 305
1631 246T1599 135T1545 45T1463 -15T1352 -37ZM1352 147Q1386 147 1408 167T1440 224T1453 294T1456 373Q1456 406 1455 430T1447 482T1431 529T1400 560T1352 573Q1315 573 1292 556T1258 507T1244 445T1241 373Q1241 327 1244 295T1257 225T1291 167T1352 147ZM475
750Q396 750 338 782T246 873T196 1002T180 1159Q180 1247 193 1314T237 1438T329 1525T475 1556Q547 1556 600 1534T684 1477T733 1389T758 1282T764 1159Q764 1074 748 1003T699 873T609 783T475 750ZM475 934Q509 934 531 954T564 1011T577 1081T580 1159Q580
1201 577 1230T564 1292T532 1342T475 1360Q439 1360 416 1343T382 1293T368 1231T365 1159Q365 1124 366 1098T374 1038T392 984T424 949T475 934ZM516 -47L387 27L1290 1567L1419 1503L516 -47Z" />
<glyph unicode="&amp;" glyph-name="ampersand" horiz-adv-x="1366" d="M991 0L889 125Q727 -37 498 -37Q327 -37 212 64T96 348Q96 606 375 813Q211 992 211 1194Q211 1368 325 1462T623 1556Q784 1556 892 1472T1001 1237Q1001 1017 711 811L958 500Q1079 670
1194 1030V545Q1140 438 1079 342L1341 0H991ZM756 307L502 635Q379 519 379 393Q379 319 430 270T555 221Q616 221 661 241T756 307ZM551 1014L588 958Q681 1060 712 1105T743 1200Q743 1253 709 1288T618 1323Q566 1323 530 1285T494 1190Q494 1100 551 1014Z"
/>
<glyph unicode="&apos;" glyph-name="quotesingle" horiz-adv-x="569" d="M395 1520V1028H174V1520H395Z" />
<glyph unicode="(" glyph-name="parenleft" horiz-adv-x="681" d="M350 1520H602Q517 1431 464 1294T392 1028T373 760Q373 274 602 0H348Q237 169 176 365T115 760Q115 963 175 1160T350 1520Z" />
<glyph unicode=")" glyph-name="parenright" horiz-adv-x="681" d="M332 0H80Q203 129 256 334T309 760Q309 1246 80 1520H334Q446 1350 506 1155T567 760Q567 556 507 359T332 0Z" />
<glyph unicode="*" glyph-name="asterisk" horiz-adv-x="909" d="M739 1386L811 1169L541 1141L748 954L559 823L451 1069L344 823L160 954L354 1141L98 1169L156 1386L393 1260L340 1520H559L506 1260L739 1386Z" />
<glyph unicode="+" glyph-name="plus" horiz-adv-x="1228" d="M504 629V1036H725V629H1130V408H725V0H504V408H98V629H504Z" />
<glyph unicode="," glyph-name="comma" horiz-adv-x="569" d="M332 -274H143Q180 -157 180 41Q180 139 170 217H426Q426 148 424 94T413 -32T384 -166T332 -274Z" />
<glyph unicode="-" glyph-name="hyphen" horiz-adv-x="796" d="M668 815V532H129V815H668Z" />
<glyph unicode="." glyph-name="period" horiz-adv-x="569" d="M113 24T113 98T153 202T285 233T416 203T457 98T416 -6T285 -37Q194 -37 154 -7Z" />
<glyph unicode="/" glyph-name="slash" horiz-adv-x="1024" d="M-14 76L846 1556L1038 1448L176 -37L-14 76Z" />
<glyph unicode="0" glyph-name="zero" horiz-adv-x="1138" d="M41 760Q41 910 54 1024T103 1242T197 1412T349 1517T569 1556Q675 1556 757 1531T897 1454T994 1336T1056 1175T1088 983T1098 760Q1098 -37 569 -37Q41 -37 41 760ZM311 760Q311 677 317 609T340
471T384 354T459 276T569 246T679 276T753 353T798 471T821 609T827 760Q827 827 825 876T816 978T798 1067T767 1138T721 1192T656 1225T569 1237Q513 1237 471 1222T400 1176T354 1106T327 1009T315 895T311 760Z" />
<glyph unicode="1" glyph-name="one" horiz-adv-x="1138" d="M834 1520V0H526V1229Q482 1200 435 1172T331 1114T237 1065T130 1012T31 963V1210Q154 1266 301 1350T573 1520H834Z" />
<glyph unicode="2" glyph-name="two" horiz-adv-x="1138" d="M1042 270V0H106V238Q126 258 180 308T275 396T376 495T481 605T575 718T656 834T708 945T729 1051Q729 1144 670 1196T502 1249Q443 1249 389 1228T298 1179T222 1103T165 1024T118 943T82 881H78Q88
998 88 1022Q88 1166 59 1239Q111 1347 171 1413T324 1518T545 1556Q773 1556 904 1442T1036 1128Q1036 865 835 632Q741 522 541 358Q527 347 500 325Q458 291 438 274V270H1042Z" />
<glyph unicode="3" glyph-name="three" horiz-adv-x="1138" d="M995 1520V1208L567 877L575 872Q632 877 645 877Q823 877 938 770T1053 481Q1053 258 903 111T522 -37Q454 -37 395 -24T298 6T222 51T166 99T121 150T86 190Q100 250 100 328Q100 379 92 481Q231
233 455 233Q577 233 661 291T745 457Q745 508 728 548T681 615T612 659T528 684T438 692Q301 692 199 643V877L653 1221V1225H96V1520H995Z" />
<glyph unicode="4" glyph-name="four" horiz-adv-x="1138" d="M1102 510V252H958V0H659V252H18V635L477 1520H958V510H1102ZM664 510V1298H659L240 510H664Z" />
<glyph unicode="5" glyph-name="five" horiz-adv-x="1138" d="M985 1520V1225H389V907Q429 934 491 948T606 963Q812 963 928 838T1044 500Q1044 258 892 111T500 -37Q273 -37 111 172Q127 282 127 338Q127 416 125 455Q190 344 272 283T469 221Q592 221 671 286T750
473Q750 603 667 666T453 729Q274 729 137 643L150 1520H985Z" />
<glyph unicode="6" glyph-name="six" horiz-adv-x="1138" d="M61 694Q61 789 65 868T85 1038T124 1201T190 1341T290 1455T430 1528T616 1556Q907 1556 1030 1366Q1010 1311 1010 1174Q1010 1106 1016 1044Q972 1151 881 1206T672 1262Q609 1262 559 1246T475
1204T416 1136T376 1055T352 959T339 861T332 760H336Q395 873 471 927T672 981Q850 981 963 848T1077 479Q1077 250 944 107T580 -37Q459 -37 366 5T217 117T124 284T75 480T61 694ZM356 475Q356 370 416 296T582 221Q691 221 749 293T807 477Q807 592 748 663T582
735T416 663T356 475Z" />
<glyph unicode="7" glyph-name="seven" horiz-adv-x="1138" d="M1065 1520V1157L508 0H213L745 1200H74V1520H1065Z" />
<glyph unicode="8" glyph-name="eight" horiz-adv-x="1138" d="M63 1147Q63 1254 101 1334T209 1462T369 1533T569 1556Q680 1556 770 1533T929 1462T1037 1334T1075 1147Q1075 977 988 884T752 782V778Q923 747 1007 654T1092 393Q1092 210 949 87T569 -37Q333
-37 190 86T47 393Q47 561 131 654T387 778V782Q239 791 151 884T63 1147ZM317 428Q317 326 386 274T569 221T751 273T821 428Q821 534 752 589T569 645Q457 645 387 590T317 428ZM346 1077Q346 983 406 931T569 879T732 931T793 1077Q793 1174 733 1224T569 1274T406
1224T346 1077Z" />
<glyph unicode="9" glyph-name="nine" horiz-adv-x="1138" d="M674 1262T563 1262T391 1196T330 1026Q330 917 391 845T563 772Q654 772 723 846T793 1024Q793 1129 734 1195ZM471 526Q283 526 172 655T61 1001Q61 1144 100 1252T207 1426T363 1523T555 1556Q662
1556 745 1531T884 1457T979 1344T1039 1194T1068 1019T1077 821Q1077 712 1066 613T1029 415T960 236T855 94T704 -3T506 -37Q254 -37 115 125Q135 206 135 299Q135 320 133 361T131 422Q282 233 492 233Q549 233 595 250T672 296T727 366T764 450T786 546T796
643T799 737H795Q744 632 666 579T471 526Z" />
<glyph unicode=":" glyph-name="colon" horiz-adv-x="569" d="M113 24T113 98T153 202T285 233T416 203T457 98T416 -6T285 -37Q194 -37 154 -7ZM113 798T113 872T153 977T285 1008Q375 1008 416 977T457 872T416 768T285 737Q194 737 154 767Z" />
<glyph unicode=";" glyph-name="semicolon" horiz-adv-x="569" d="M332 -274H143Q180 -157 180 41Q180 139 170 217H426Q426 148 424 94T413 -32T384 -166T332 -274ZM113 798T113 872T153 977T285 1008Q375 1008 416 977T457 872T416 768T285 737Q194 737 154 767Z" />
<glyph unicode="&lt;" glyph-name="less" horiz-adv-x="1228" d="M1130 203V-16L98 436V600L1130 1053V834L399 518L1130 203Z" />
<glyph unicode="=" glyph-name="equal" horiz-adv-x="1228" d="M1130 848V627H98V848H1130ZM1130 410V188H98V410H1130Z" />
<glyph unicode="&gt;" glyph-name="greater" horiz-adv-x="1228" d="M1130 600V436L98 -16V203L829 518L98 834V1053L1130 600Z" />
<glyph unicode="?" glyph-name="question" horiz-adv-x="1138" d="M135 1016V1327Q155 1367 189 1404T274 1477T400 1534T563 1556Q753 1556 878 1443T1004 1141Q1004 1098 995 1057T974 985T936 918T893 860T836 804T778 753T711 699T645 647Q578 593 578 494Q578
443 588 385H379Q369 456 369 559Q369 623 389 670T457 762Q479 782 537 825T636 900T710 982T745 1083Q745 1173 682 1223T516 1274Q395 1274 292 1202T135 1016ZM319 24T319 98T360 202T492 233T623 203T664 98T623 -6T492 -37Q401 -37 360 -7Z" />
<glyph unicode="@" glyph-name="at" horiz-adv-x="1638" d="M1008 791Q1008 875 962 929T844 983Q733 983 661 900T588 680Q588 605 633 552T745 498Q859 498 933 587T1008 791ZM1300 1163L1165 610Q1155 570 1155 530Q1155 500 1165 485T1210 469Q1254 469 1304
518T1392 661T1430 862Q1430 1113 1276 1242T848 1372Q664 1372 523 1291T306 1071T231 758Q231 606 278 489T412 297T614 185T872 147Q1012 147 1132 192T1337 322H1542Q1435 149 1256 56T860 -37Q682 -37 530 16T264 168T87 420T23 762Q23 926 87 1073T262 1326T526
1494T850 1556Q1004 1556 1143 1509T1387 1378T1554 1172T1616 907Q1616 782 1576 676T1473 500T1334 381T1187 311T1059 289Q1008 289 974 321T936 412H930Q883 352 829 321T698 289Q562 289 465 396T367 651Q367 787 423 910T586 1112T829 1192Q997 1192 1081
1053L1114 1163H1300Z" />
<glyph unicode="A" glyph-name="A" horiz-adv-x="1366" d="M930 1520L1343 0H1026L922 375H446L340 0H23L446 1520H930ZM680 1311L500 657H862L684 1311H680Z" />
<glyph unicode="B" glyph-name="B" horiz-adv-x="1366" d="M461 641V258H745Q868 258 922 304T977 449T923 594T745 641H461ZM461 1249V887H735Q954 887 954 1069Q954 1162 904 1205T745 1249H461ZM154 0V1520H907Q1262 1520 1262 1159Q1262 979 1150 887T844
786V782Q913 779 964 772T1069 751T1159 712T1225 650T1269 559T1284 434Q1284 315 1246 230T1135 95T966 23T743 0H154Z" />
<glyph unicode="C" glyph-name="C" horiz-adv-x="1251" d="M1147 547V211Q1064 94 951 29T702 -37Q572 -37 466 7T287 128T166 307T94 525T72 766Q72 1004 141 1180T354 1456T702 1556Q837 1556 944 1513T1147 1370V954L1139 961Q1088 1080 988 1152T750 1225Q680
1225 623 1208T526 1161T458 1091T411 1007T384 914T371 822T367 735Q367 512 471 379T743 246Q875 246 980 332T1147 547Z" />
<glyph unicode="D" glyph-name="D" horiz-adv-x="1478" d="M154 0V1520H868Q948 1520 1020 1501T1164 1433T1288 1307T1372 1107T1405 825Q1405 619 1350 460T1195 201T963 51T672 0H154ZM461 1212V295H694Q1098 295 1098 811Q1098 875 1089 928T1066 1020T1028
1089T982 1140T927 1174T870 1195T810 1207T752 1211T698 1212H461Z" />
<glyph unicode="E" glyph-name="E" horiz-adv-x="1251" d="M154 0V1520H1133V1212H461V909H1130V614H461V283H1128V0H154Z" />
<glyph unicode="F" glyph-name="F" horiz-adv-x="1251" d="M154 0V1520H1147V1212H461V879H1145V584H461V0H154Z" />
<glyph unicode="G" glyph-name="G" horiz-adv-x="1366" d="M1247 774V260Q1125 95 1007 29T702 -37Q572 -37 466 7T287 128T166 307T94 525T72 766Q72 1004 141 1180T354 1456T702 1556Q809 1556 892 1540T1034 1491T1128 1428T1200 1352V952Q1128 1099 1019 1168T745
1237Q646 1237 572 1199T454 1091T389 931T367 731Q367 654 377 585T414 448T481 331T584 251T727 221Q783 221 842 239T940 293V774H1247Z" />
<glyph unicode="H" glyph-name="H" horiz-adv-x="1478" d="M154 0V1520H461V940H1018V1520H1325V0H1018V621H461V0H154Z" />
<glyph unicode="I" glyph-name="I" horiz-adv-x="569" d="M131 0V1520H438V0H131Z" />
<glyph unicode="J" glyph-name="J" horiz-adv-x="909" d="M14 63V307Q64 264 134 237T281 209Q324 209 356 225T406 267T436 332T451 409T455 496V1520H762V451Q762 212 665 88T342 -37Q254 -37 166 -10T14 63Z" />
<glyph unicode="K" glyph-name="K" horiz-adv-x="1366" d="M154 0V1520H461V856H465L936 1520H1325L754 762L1327 0H944L465 659H461V0H154Z" />
<glyph unicode="L" glyph-name="L" horiz-adv-x="1024" d="M154 0V1520H461V295H981V0H154Z" />
<glyph unicode="M" glyph-name="M" horiz-adv-x="1820" d="M154 0V1520H649L907 442H911L1178 1520H1667V0H1372V1147H1368L1055 0H762L453 1147H449V0H154Z" />
<glyph unicode="N" glyph-name="N" horiz-adv-x="1478" d="M1331 1520V0H942L446 1157H442V0H147V1520H606L1032 498H1036V1520H1331Z" />
<glyph unicode="O" glyph-name="O" horiz-adv-x="1478" d="M1399 811Q1399 701 1384 600T1338 403T1253 227T1129 89T959 -4T739 -37Q636 -37 548 -12T394 56T274 162T185 298T125 456T91 629T80 811Q80 989 114 1122T223 1354T428 1505T739 1556T1050 1505T1255
1355T1365 1122T1399 811ZM1104 793Q1104 887 1085 964T1025 1104T911 1202T739 1237Q660 1237 597 1214T493 1150T425 1053T387 931T375 793Q375 725 382 663T404 535T447 417T514 322T610 257T739 233T867 256T964 322T1031 416T1074 534T1097 662T1104 793Z"
/>
<glyph unicode="P" glyph-name="P" horiz-adv-x="1366" d="M154 0V1520H795Q1043 1520 1166 1400T1290 1022Q1290 896 1249 794T1136 627T969 527T762 492H461V0H154ZM461 1212V762H758Q799 762 836 774T908 812T962 885T983 997Q983 1041 974 1075T952 1131T914
1169T869 1193T812 1205T752 1211T686 1212H461Z" />
<glyph unicode="Q" glyph-name="Q" horiz-adv-x="1478" d="M737 -221L631 -29Q512 -13 418 42T261 177T157 362T98 578T80 811Q80 989 114 1122T223 1354T428 1505T739 1556T1050 1505T1255 1355T1365 1122T1399 811Q1399 698 1384 595T1334 392T1245 215T1112
77T930 -12L1044 -221H737ZM1104 793Q1104 887 1085 964T1025 1104T911 1202T739 1237Q660 1237 597 1214T493 1150T425 1053T387 931T375 793Q375 725 382 663T404 535T447 417T514 322T610 257T739 233T867 256T964 322T1031 416T1074 534T1097 662T1104 793Z"
/>
<glyph unicode="R" glyph-name="R" horiz-adv-x="1366" d="M934 0L465 653H461V0H154V1520H860Q950 1520 1024 1496T1155 1423T1244 1293T1276 1106Q1276 876 1155 766T807 659L1323 0H934ZM457 1225V852H719Q772 852 812 859T890 886T948 946T969 1047Q969 1136
909 1180T741 1225H457Z" />
<glyph unicode="S" glyph-name="S" horiz-adv-x="1138" d="M1008 1380V1014Q884 1249 618 1249Q570 1249 529 1241T450 1213T392 1158T371 1073Q371 1036 394 1007T458 957T550 917T659 878T774 835T884 778T976 702T1039 596T1063 455Q1063 226 923 95T555 -37Q292
-37 121 139V496Q178 371 289 302T532 233Q780 233 780 403Q780 451 756 487T691 545T598 586T487 623T370 664T259 722T165 805T100 926T76 1094Q76 1296 223 1426T584 1556Q673 1556 749 1537T876 1488T958 1432T1008 1380Z" />
<glyph unicode="T" glyph-name="T" horiz-adv-x="1138" d="M416 0V1212H25V1520H1114V1212H723V0H416Z" />
<glyph unicode="U" glyph-name="U" horiz-adv-x="1478" d="M1026 1520H1333V578Q1333 276 1183 120T739 -37T296 119T145 578V1520H453V662Q453 615 453 585T457 514T465 448T481 391T506 341T542 301T591 271T656 253T739 246Q797 246 842 257T917 286T968 335T1000
397T1017 476T1024 563T1026 662V1520Z" />
<glyph unicode="V" glyph-name="V" horiz-adv-x="1366" d="M471 0L23 1520H356L684 350H688L1014 1520H1343L887 0H471Z" />
<glyph unicode="W" glyph-name="W" horiz-adv-x="2048" d="M2005 1520L1630 0H1255L1028 1188H1024L778 0H401L43 1520H367L596 369H600L831 1520H1223L1448 381L1450 369H1454L1692 1520H2005Z" />
<glyph unicode="X" glyph-name="X" horiz-adv-x="1366" d="M23 0L485 768L47 1520H412L696 993L985 1520H1343L889 764L1343 0H975L682 526L385 0H23Z" />
<glyph unicode="Y" glyph-name="Y" horiz-adv-x="1366" d="M520 0V561L23 1520H377L678 891L991 1520H1343L827 561V0H520Z" />
<glyph unicode="Z" glyph-name="Z" horiz-adv-x="1138" d="M74 1200V1520H1065V1204L438 295H1065V0H74V299L698 1200H74Z" />
<glyph unicode="[" glyph-name="bracketleft" horiz-adv-x="681" d="M569 209V0H156V1520H569V1311H414V209H569Z" />
<glyph unicode="\" glyph-name="backslash" horiz-adv-x="1024" d="M178 1556L1038 76L848 -37L-14 1448L178 1556Z" />
<glyph unicode="]" glyph-name="bracketright" horiz-adv-x="681" d="M113 1311V1520H526V0H113V209H268V1311H113Z" />
<glyph unicode="^" glyph-name="asciicircum" horiz-adv-x="1228" d="M705 1434L1100 627H877L612 1184L352 627H129L524 1434H705Z" />
<glyph unicode="_" glyph-name="underscore" horiz-adv-x="1024" d="M1024 -256H0V-154H1024V-256Z" />
<glyph unicode="`" glyph-name="grave" horiz-adv-x="569" d="M307 1655L573 1421H330L-4 1655H307Z" />
<glyph unicode="a" glyph-name="a" horiz-adv-x="1251" d="M821 0V246H817Q775 100 679 32T428 -37Q274 -37 172 64T70 317Q70 394 95 455T164 556T264 626T382 675T505 711T623 743T722 779T791 829T817 901Q817 968 758 999T600 1030Q447 1030 329 967T133 791V1092Q240
1215 349 1264T635 1313Q851 1313 977 1217T1104 924V0H821ZM823 557V631Q798 607 740 584T620 540T499 494T403 428T365 334Q365 259 408 222T530 184Q605 184 663 215T755 300T806 419T823 557Z" />
<glyph unicode="b" glyph-name="b" horiz-adv-x="1366" d="M143 0V1585H451V1004H455Q515 1160 605 1236T854 1313Q943 1313 1013 1285T1130 1204T1208 1089T1257 947T1281 797T1288 645Q1288 516 1259 397T1173 179T1024 22T815 -37Q532 -37 436 242H432V0H143ZM1006
614Q1006 705 994 771T950 893T860 977T713 1006Q650 1006 600 982T519 921T468 832T440 732T432 631Q432 557 439 500T465 388T517 299T603 242T729 221Q850 221 928 333T1006 614Z" />
<glyph unicode="c" glyph-name="c" horiz-adv-x="1138" d="M1040 1145V754Q1002 865 901 935T682 1006Q360 1006 360 643Q360 576 369 517T402 402T460 308T549 245T670 221Q802 221 895 295T1040 500V180Q877 -37 629 -37Q513 -37 414 8T239 140T121 361T78 664Q78
800 112 916T213 1121T386 1262T629 1313Q888 1313 1040 1145Z" />
<glyph unicode="d" glyph-name="d" horiz-adv-x="1366" d="M1223 1585V0H934V303H930Q891 147 797 55T551 -37Q439 -37 354 2T217 103T134 255T90 433T78 625Q78 730 92 824T140 1009T228 1166T366 1272T559 1313Q694 1313 786 1244T911 1040H915V1585H1223ZM928
631Q928 1006 653 1006Q575 1006 517 973T425 883T376 758T360 614Q360 221 637 221Q713 221 771 257T863 354T912 485T928 631Z" />
<glyph unicode="e" glyph-name="e" horiz-adv-x="1251" d="M1110 451V180Q1029 81 916 22T680 -37Q526 -37 410 12T222 153T114 368T78 645Q78 954 228 1133T647 1313Q1174 1313 1174 690Q1174 675 1163 532H373Q376 369 465 289T721 209Q798 209 857 225T961
276T1039 350T1110 451ZM373 778H965Q960 899 874 964T664 1030Q551 1030 467 963T373 778Z" />
<glyph unicode="f" glyph-name="f" horiz-adv-x="909" d="M219 0V856H0V1102H219V1243Q213 1403 318 1494T606 1585Q750 1585 909 1532V1288Q836 1339 678 1339Q579 1339 522 1295T465 1157Q465 1123 473 1102H877V856H526V0H219Z" />
<glyph unicode="g" glyph-name="g" horiz-adv-x="1366" d="M1223 1276V170Q1223 68 1195 -13T1118 -148T999 -239T848 -291T670 -307Q374 -307 186 -168V84Q260 6 366 -34T594 -74Q640 -74 682 -68T770 -42T850 8T906 92T928 215V365H924Q868 246 774 179T557
111Q450 111 366 146T229 238T141 374T92 534T78 707Q78 811 91 896T139 1061T227 1194T369 1281T569 1313Q714 1313 807 1257T936 1071H940V1276H1223ZM928 711Q928 863 864 946T649 1030Q569 1030 511 1004T421 929T375 822T360 690Q360 547 433 452T643 356Q717
356 773 384T863 461T912 573T928 711Z" />
<glyph unicode="h" glyph-name="h" horiz-adv-x="1366" d="M141 0V1585H449V979H453Q469 1045 502 1103T584 1209T702 1285T850 1313Q940 1313 1008 1287T1116 1220T1182 1116T1216 989T1225 846V0H918V705Q918 766 915 807T901 891T868 960T810 1001T719 1018Q647
1018 593 989T508 909T464 799T449 670V0H141Z" />
<glyph unicode="i" glyph-name="i" horiz-adv-x="569" d="M131 0V1276Q190 1241 289 1241Q373 1241 438 1276V0H131ZM100 1499Q100 1574 143 1601T285 1628T426 1601T469 1499Q469 1370 285 1370Q100 1370 100 1499Z" />
<glyph unicode="j" glyph-name="j" horiz-adv-x="569" d="M-90 -287V-100Q-35 -111 -14 -111Q26 -111 54 -98T97 -67T120 -18T129 37T131 98V1276Q190 1241 289 1241Q373 1241 438 1276V61Q438 21 437 -7T428 -77T409 -148T371 -209T312 -261T225 -294T106 -307Q18
-307 -90 -287ZM100 1499Q100 1574 143 1601T285 1628T426 1601T469 1499Q469 1370 285 1370Q100 1370 100 1499Z" />
<glyph unicode="k" glyph-name="k" horiz-adv-x="1251" d="M133 0V1585H440V666H444L860 1276H1251L754 635L1255 0H844L444 596H440V0H133Z" />
<glyph unicode="l" glyph-name="l" horiz-adv-x="569" d="M131 0V1585H438V0H131Z" />
<glyph unicode="m" glyph-name="m" horiz-adv-x="2048" d="M141 0V1276H436V991H440Q481 1146 571 1229T819 1313Q890 1313 946 1295T1037 1248T1099 1177T1139 1094T1161 1004H1165Q1210 1156 1302 1234T1548 1313Q1907 1313 1907 920V0H1599V725Q1599 774 1597
807T1585 883T1557 953T1504 999T1419 1018Q1373 1018 1336 1003T1275 965T1232 908T1203 842T1187 770T1180 701T1178 641V0H870V725Q870 774 868 807T856 883T828 953T775 999T690 1018Q644 1018 607 1003T546 965T503 908T474 842T458 770T451 701T449 641V0H141Z"
/>
<glyph unicode="n" glyph-name="n" horiz-adv-x="1366" d="M141 0V1276H436V958H440Q484 1113 589 1213T850 1313Q940 1313 1008 1287T1116 1220T1182 1116T1216 989T1225 846V0H918V705Q918 766 915 807T901 891T868 960T810 1001T719 1018Q647 1018 593 989T508
909T464 799T449 670V0H141Z" />
<glyph unicode="o" glyph-name="o" horiz-adv-x="1366" d="M82 657Q82 980 227 1146T682 1313Q993 1313 1138 1147T1284 657Q1284 320 1131 142T682 -37Q388 -37 235 141T82 657ZM682 221Q767 221 829 252T929 341T983 474T1001 647Q1001 1006 684 1006Q365 1006
365 647Q365 448 441 335T682 221Z" />
<glyph unicode="p" glyph-name="p" horiz-adv-x="1366" d="M143 -307V1276H432V963H436Q473 1057 509 1118T594 1225T706 1292T854 1313Q943 1313 1013 1285T1130 1204T1208 1089T1257 947T1281 797T1288 645Q1288 516 1259 397T1173 179T1024 22T815 -37Q734
-37 669 -15T563 44T496 118T455 197H451V-307H143ZM1006 614Q1006 705 994 771T950 893T860 977T713 1006Q650 1006 600 982T519 921T468 832T440 732T432 631Q432 557 439 500T465 388T517 299T603 242T729 221Q850 221 928 333T1006 614Z" />
<glyph unicode="q" glyph-name="q" horiz-adv-x="1366" d="M915 -307V252H911Q899 199 872 150T801 58T693 -11T551 -37Q439 -37 354 2T217 103T134 255T90 433T78 625Q78 730 92 824T140 1009T228 1166T366 1272T559 1313Q701 1313 798 1233T930 989H934V1276H1223V-307H915ZM928
631Q928 1006 653 1006Q575 1006 517 973T425 883T376 758T360 614Q360 221 637 221Q713 221 771 257T863 354T912 485T928 631Z" />
<glyph unicode="r" glyph-name="r" horiz-adv-x="909" d="M455 567V0H147V1276H432V909H436Q447 999 469 1070T527 1199T617 1285T743 1313Q844 1308 905 1260V903Q845 993 729 993Q663 993 613 965T533 893T486 791T461 678T455 567Z" />
<glyph unicode="s" glyph-name="s" horiz-adv-x="1024" d="M115 111V440Q222 221 473 221Q515 221 555 233T630 281T664 371Q664 403 645 428T592 469T515 499T425 528T330 560T239 605T163 669T110 759T90 883Q90 1075 220 1194T549 1313Q655 1313 744 1275T887
1165V834Q847 931 759 980T559 1030Q485 1030 429 993T373 899Q373 860 397 833T460 791T550 760T653 731T756 690T846 626T910 526T934 379Q934 255 872 159T707 13T479 -37Q368 -37 286 -2T115 111Z" />
<glyph unicode="t" glyph-name="t" horiz-adv-x="909" d="M862 367V90Q798 25 728 -6T557 -37Q470 -37 405 -13T301 52T239 151T207 271T199 406Q199 510 201 610T206 827T211 993H29V1208Q157 1237 248 1342T377 1585H518L510 1276H881V993H504Q503 921 499 740T494
461Q494 418 497 384T511 316T539 260T587 223T657 209Q733 209 777 248T862 367Z" />
<glyph unicode="u" glyph-name="u" horiz-adv-x="1366" d="M930 0V307H926Q823 -37 516 -37Q426 -37 358 -11T250 56T184 160T150 287T141 430V1276H449V559Q449 523 449 501T452 448T457 399T468 356T485 318T509 288T543 265T589 252T647 246Q719 246 773 277T858
360T903 471T918 594V1276H1225V0H930Z" />
<glyph unicode="v" glyph-name="v" horiz-adv-x="1251" d="M1235 1276L809 0H434L16 1276H352L621 356H625L907 1276H1235Z" />
<glyph unicode="w" glyph-name="w" horiz-adv-x="1933" d="M1882 1276L1491 0H1139L965 969H961L782 0H430L51 1276H375L594 379H598L772 1276H1159L1325 379H1329L1569 1276H1882Z" />
<glyph unicode="x" glyph-name="x" horiz-adv-x="1251" d="M1233 1276L821 635L1227 0H862L618 426L377 0H18L426 637L23 1276H395L633 856L872 1276H1233Z" />
<glyph unicode="y" glyph-name="y" horiz-adv-x="1251" d="M1233 1276L674 -307H348L487 70L18 1276H350L639 463H643L915 1276H1233Z" />
<glyph unicode="z" glyph-name="z" horiz-adv-x="1138" d="M1020 1276V950L422 246H1020V0H119V305L713 1006H119V1276H1020Z" />
<glyph unicode="{" glyph-name="braceleft" horiz-adv-x="681" d="M651 1520V1348H555Q504 1348 486 1312T467 1210V987Q466 925 444 880T386 811T318 777T252 762V758Q279 755 304 749T359 726T412 686T450 623T467 532V309Q467 245 485 209T555 172H651V0H481Q373
0 297 64T221 233V516Q221 594 171 637T57 680V840Q120 840 170 883T221 1004V1286Q221 1391 297 1455T481 1520H651Z" />
<glyph unicode="|" glyph-name="bar" horiz-adv-x="454" d="M117 1536H338V-512H117V1536Z" />
<glyph unicode="}" glyph-name="braceright" horiz-adv-x="681" d="M31 0V172H127Q178 172 196 208T215 309V532Q216 583 231 622T269 685T322 725T378 748T430 758V762Q396 766 364 776T296 810T238 879T215 987V1210Q215 1275 197 1311T127 1348H31V1520H201Q309
1520 385 1456T461 1286V1004Q461 926 511 883T625 840V680Q562 680 512 637T461 516V233Q461 129 385 65T201 0H31Z" />
<glyph unicode="~" glyph-name="asciitilde" horiz-adv-x="1228" d="M1014 698L1087 520Q1064 487 1049 468T1008 421T958 379T901 353T831 342Q747 342 618 412Q545 453 499 469T391 485Q328 485 287 445T215 338L141 516Q234 694 387 694Q480 694 625 627Q640
620 677 602T734 576T782 559T834 551Q863 551 888 562T938 600T976 644T1014 698Z" />
</font>
</defs>
</svg>
